<?xml version="1.0" encoding="UTF-8" standalone="no"?>
<!-- Created with Inkscape (http://www.inkscape.org/) -->

<svg
   width="70.090431mm"
   height="83.791756mm"
   viewBox="0 0 70.090431 83.791756"
   version="1.1"
   id="svg1"
   xml:space="preserve"
   inkscape:version="1.4.3 (0d15f75042, 2025-12-25)"
   sodipodi:docname="logo.svg"
   inkscape:export-filename="logo.png"
   inkscape:export-xdpi="42.760944"
   inkscape:export-ydpi="42.760944"
   xmlns:inkscape="http://www.inkscape.org/namespaces/inkscape"
   xmlns:sodipodi="http://sodipodi.sourceforge.net/DTD/sodipodi-0.dtd"
   xmlns="http://www.w3.org/2000/svg"
   xmlns:svg="http://www.w3.org/2000/svg"><sodipodi:namedview
     id="namedview1"
     pagecolor="#ffffff"
     bordercolor="#000000"
     borderopacity="0.25"
     inkscape:showpageshadow="2"
     inkscape:pageopacity="0.0"
     inkscape:pagecheckerboard="0"
     inkscape:deskcolor="#d1d1d1"
     inkscape:document-units="mm"
     inkscape:zoom="1.4142136"
     inkscape:cx="482.60038"
     inkscape:cy="395.62624"
     inkscape:window-width="3440"
     inkscape:window-height="1372"
     inkscape:window-x="0"
     inkscape:window-y="0"
     inkscape:window-maximized="1"
     inkscape:current-layer="layer1"><inkscape:page
       x="0"
       y="0"
       width="70.090431"
       height="83.791756"
       id="page2"
       margin="0"
       bleed="0" /></sodipodi:namedview><defs
     id="defs1" /><g
     inkscape:label="Layer 1"
     inkscape:groupmode="layer"
     id="layer1"
     transform="translate(-71.972017,-72.987004)"><path
       style="fill:#000000;stroke-width:0.542289"
       d="m 111.2339,142.89907 c -0.33591,-0.37073 -0.30677,-0.66417 -0.30677,-1.13921 -0.0292,-1.07906 -0.26316,-2.13842 -0.42285,-3.20309 -0.88651,-6.07854 -2.44676,-8.42605 -2.44676,-8.66211 -0.50911,-1.17792 -1.74732,-1.87938 -2.99127,-1.91452 -3.21505,-0.0919 -1.9784,5.50054 -1.2876,8.49615 1.17562,9.23923 -12.860623,7.49439 -13.740158,7.23808 l 0.227442,-0.28688 c 1.564902,-1.76215 2.766904,-3.78494 3.325135,-6.0918 0.538793,-3.0506 -0.1776,-8.52708 -1.21474,-16.00698 0.326119,-4.063 0.601697,-6.04256 2.123822,-9.21713 3.035239,-6.32592 10.032509,-11.41699 19.081389,-11.08733 3.91437,0.0534 9.45544,2.06684 11.26324,3.95734 0,0.45433 -2.52089,3.50986 -9.32625,7.58249 -0.92856,0.5428 -7.59367,3.95682 -8.82406,4.36344 1.88977,0.0754 5.63096,-1.26369 11.26323,-3.9575 6.28944,-3.00818 12.11486,-10.06714 12.87296,-10.63023 0.36863,-0.27381 3.67758,11.06557 4.13424,12.90132 1.98803,8.0684 1.89041,7.50963 4.34548,22.04326 -1.80997,-0.70676 -3.53871,-1.59886 -5.27395,-2.46854 0.0579,-4.15972 -0.091,-5.37924 -0.72632,-8.14251 -0.67546,-0.56835 -6.45028,-4.59746 -13.4872,-3.43602 0.2284,5.07018 7.00565,6.34527 10.88389,7.44417 0.89502,8.95193 3.6179,17.51604 6.19044,26.09729 -3.06632,-0.43789 -15.95163,-3.93586 -25.66334,-13.87969 z m -34.705968,-2.40531 c 1.269501,-8.72585 -4.56631,-16.15085 -3.889483,-30.8113 -0.08049,-10.92321 9.9687,-24.641994 12.781883,-25.534612 1.923467,1.45877 3.64001,3.175019 5.410318,4.812 0,0 -1.989743,-4.40179 -3.472755,-6.41105 5.152058,-4.859028 13.238185,-7.519235 19.982225,-8.99596 3.30427,-0.687613 14.01032,-1.215219 21.25154,1.341162 0,0 -1.89867,4.937153 -2.31208,7.418978 0.20599,0.03017 3.85989,-5.349361 5.17496,-6.50985 3.68708,1.43949 7.91943,2.721166 10.60792,5.72258 -1.61321,1.113983 -5.0809,1.86857 -9.91501,6.63343 -3.02449,3.060769 -4.0455,5.181493 -4.69571,5.666226 -0.52301,0.193412 0.13767,-0.351528 -6.12225,-1.951176 -4.9727,-1.22537 -10.30101,-1.446527 -15.29101,-0.17818 -6.414568,1.442831 -11.36583,5.268645 -15.771416,9.986872 -2.360594,2.98266 -3.966104,6.55981 -5.034047,10.18713 -1.246817,4.56293 -1.036237,9.35522 -0.650188,14.02735 0.367222,3.71451 0.414309,8.73688 -1.991102,14.45357 -2.665417,7.46745 -9.854142,9.98542 -10.619711,9.94929 2.613136,-2.57084 3.974124,-5.80754 4.555916,-9.80646 z m 10.091745,-17.23678 c -1.683731,-19.2919 14.371983,-36.229176 38.645213,-27.513931 0,0 0.81253,0.35665 0.46799,1.069109 -0.34453,0.712459 -1.10434,2.396557 -1.77571,3.829962 -0.33477,0.72821 -0.25007,0.71858 -1.40804,0.16014 -11.90299,-5.740346 -32.37599,0.63983 -32.426694,21.49882 -1.169167,0.31304 -2.338331,0.62548 -3.502759,0.9559 z"
       id="path5"
       sodipodi:nodetypes="sscsccccccsccscszsccccccssscccccccsscsssssscscczsscc" /></g></svg>
